<svg xmlns="http://www.w3.org/2000/svg" viewBox="0 0 1200 630" role="img" aria-label="Keel proof gate">
  <rect width="1200" height="630" fill="#0b1118" />
  <g opacity=".28" stroke="#f7b53b" stroke-width="1">
    <path d="M0 120H1200M0 240H1200M0 360H1200M0 480H1200" />
    <path d="M120 0V630M240 0V630M360 0V630M480 0V630M600 0V630M720 0V630M840 0V630M960 0V630M1080 0V630" />
  </g>
  <path d="M968 88 1108 228 968 368 828 228Z" fill="none" stroke="#f6821f" stroke-width="18" />
  <text x="80" y="138" fill="#f6821f" font-family="SFMono-Regular, Menlo, monospace" font-size="30" font-weight="700" letter-spacing="6">KEEL 0.0.1</text>
  <text x="78" y="280" fill="#f7f9fb" font-family="Inter, system-ui, sans-serif" font-size="88" font-weight="780">Software does not</text>
  <text x="78" y="376" fill="#f7f9fb" font-family="Inter, system-ui, sans-serif" font-size="88" font-weight="780">get to call itself done.</text>
  <text x="84" y="470" fill="#9baaba" font-family="Inter, system-ui, sans-serif" font-size="34">Signed, artifact-bound proof gates for self-updating software.</text>
  <rect x="80" y="526" width="346" height="50" rx="7" fill="#182431" stroke="rgba(174,196,216,.28)" />
  <text x="104" y="560" fill="#63d5a2" font-family="SFMono-Regular, Menlo, monospace" font-size="24">ACCEPTED: chain verified</text>
</svg>
